<mxfile host="app.diagrams.net" modified="2023-09-25T22:21:23.477Z" agent="Mozilla/5.0 (Windows NT 10.0; Win64; x64) AppleWebKit/537.36 (KHTML, like Gecko) Chrome/116.0.0.0 Safari/537.36" etag="KjnmbGk55nLVoKEDBjdV" version="21.8.2" type="github">
  <diagram id="C5RBs43oDa-KdzZeNtuy" name="Page-1">
    <mxGraphModel dx="1760" dy="940" grid="1" gridSize="20" guides="1" tooltips="1" connect="1" arrows="1" fold="1" page="1" pageScale="1" pageWidth="1200" pageHeight="1000" background="none" math="0" shadow="0">
      <root>
        <mxCell id="WIyWlLk6GJQsqaUBKTNV-0" />
        <mxCell id="WIyWlLk6GJQsqaUBKTNV-1" parent="WIyWlLk6GJQsqaUBKTNV-0" />
        <mxCell id="ST55X5I8LHfSUQHFYakB-3" value="&lt;font style=&quot;font-size: 30px;&quot;&gt;fct_vendas&lt;/font&gt;" style="rounded=0;whiteSpace=wrap;html=1;" vertex="1" parent="WIyWlLk6GJQsqaUBKTNV-1">
          <mxGeometry x="1080" y="390" width="240" height="120" as="geometry" />
        </mxCell>
        <mxCell id="ST55X5I8LHfSUQHFYakB-9" style="edgeStyle=orthogonalEdgeStyle;rounded=0;orthogonalLoop=1;jettySize=auto;html=1;dashed=1;" edge="1" parent="WIyWlLk6GJQsqaUBKTNV-1" source="ST55X5I8LHfSUQHFYakB-4" target="ST55X5I8LHfSUQHFYakB-3">
          <mxGeometry relative="1" as="geometry" />
        </mxCell>
        <mxCell id="ST55X5I8LHfSUQHFYakB-4" value="&lt;font style=&quot;font-size: 20px;&quot;&gt;int_vendas_pedidos_itens&lt;/font&gt;" style="rounded=0;whiteSpace=wrap;html=1;dashed=1;" vertex="1" parent="WIyWlLk6GJQsqaUBKTNV-1">
          <mxGeometry x="760" y="410" width="240" height="80" as="geometry" />
        </mxCell>
        <mxCell id="ST55X5I8LHfSUQHFYakB-7" style="edgeStyle=orthogonalEdgeStyle;rounded=0;orthogonalLoop=1;jettySize=auto;html=1;exitX=1;exitY=0.5;exitDx=0;exitDy=0;entryX=0;entryY=0.25;entryDx=0;entryDy=0;dashed=1;" edge="1" parent="WIyWlLk6GJQsqaUBKTNV-1" source="ST55X5I8LHfSUQHFYakB-5" target="ST55X5I8LHfSUQHFYakB-4">
          <mxGeometry relative="1" as="geometry" />
        </mxCell>
        <mxCell id="ST55X5I8LHfSUQHFYakB-5" value="&lt;font style=&quot;font-size: 20px;&quot;&gt;stg_erp_pedidos&lt;/font&gt;" style="rounded=0;whiteSpace=wrap;html=1;dashed=1;" vertex="1" parent="WIyWlLk6GJQsqaUBKTNV-1">
          <mxGeometry x="440" y="350" width="240" height="80" as="geometry" />
        </mxCell>
        <mxCell id="ST55X5I8LHfSUQHFYakB-8" style="edgeStyle=orthogonalEdgeStyle;rounded=0;orthogonalLoop=1;jettySize=auto;html=1;dashed=1;entryX=-0.005;entryY=0.648;entryDx=0;entryDy=0;entryPerimeter=0;" edge="1" parent="WIyWlLk6GJQsqaUBKTNV-1" source="ST55X5I8LHfSUQHFYakB-6" target="ST55X5I8LHfSUQHFYakB-4">
          <mxGeometry relative="1" as="geometry" />
        </mxCell>
        <mxCell id="ST55X5I8LHfSUQHFYakB-6" value="&lt;font style=&quot;font-size: 20px;&quot;&gt;stg_erp_detalhes_pedidos&lt;/font&gt;" style="rounded=0;whiteSpace=wrap;html=1;dashed=1;" vertex="1" parent="WIyWlLk6GJQsqaUBKTNV-1">
          <mxGeometry x="440" y="469" width="240" height="80" as="geometry" />
        </mxCell>
        <mxCell id="ST55X5I8LHfSUQHFYakB-11" style="edgeStyle=orthogonalEdgeStyle;rounded=0;orthogonalLoop=1;jettySize=auto;html=1;exitX=0.5;exitY=0;exitDx=0;exitDy=0;entryX=0.25;entryY=1;entryDx=0;entryDy=0;" edge="1" parent="WIyWlLk6GJQsqaUBKTNV-1" source="ST55X5I8LHfSUQHFYakB-10" target="ST55X5I8LHfSUQHFYakB-3">
          <mxGeometry relative="1" as="geometry" />
        </mxCell>
        <mxCell id="ST55X5I8LHfSUQHFYakB-10" value="&lt;font style=&quot;font-size: 28px;&quot;&gt;dim_produtos&lt;/font&gt;" style="rounded=0;whiteSpace=wrap;html=1;" vertex="1" parent="WIyWlLk6GJQsqaUBKTNV-1">
          <mxGeometry x="840" y="690" width="240" height="79" as="geometry" />
        </mxCell>
        <mxCell id="ST55X5I8LHfSUQHFYakB-13" style="edgeStyle=orthogonalEdgeStyle;rounded=0;orthogonalLoop=1;jettySize=auto;html=1;exitX=1;exitY=0.5;exitDx=0;exitDy=0;dashed=1;" edge="1" parent="WIyWlLk6GJQsqaUBKTNV-1" source="ST55X5I8LHfSUQHFYakB-12" target="ST55X5I8LHfSUQHFYakB-10">
          <mxGeometry relative="1" as="geometry">
            <Array as="points">
              <mxPoint x="760" y="630" />
              <mxPoint x="760" y="730" />
            </Array>
          </mxGeometry>
        </mxCell>
        <mxCell id="ST55X5I8LHfSUQHFYakB-12" value="&lt;font style=&quot;font-size: 20px;&quot;&gt;stg_erp_produtos&lt;/font&gt;" style="rounded=0;whiteSpace=wrap;html=1;dashed=1;" vertex="1" parent="WIyWlLk6GJQsqaUBKTNV-1">
          <mxGeometry x="440" y="590" width="240" height="80" as="geometry" />
        </mxCell>
        <mxCell id="ST55X5I8LHfSUQHFYakB-15" style="edgeStyle=orthogonalEdgeStyle;rounded=0;orthogonalLoop=1;jettySize=auto;html=1;exitX=1;exitY=0.5;exitDx=0;exitDy=0;entryX=0;entryY=0.75;entryDx=0;entryDy=0;dashed=1;" edge="1" parent="WIyWlLk6GJQsqaUBKTNV-1" source="ST55X5I8LHfSUQHFYakB-14" target="ST55X5I8LHfSUQHFYakB-10">
          <mxGeometry relative="1" as="geometry" />
        </mxCell>
        <mxCell id="ST55X5I8LHfSUQHFYakB-14" value="&lt;font style=&quot;font-size: 20px;&quot;&gt;stg_erp_categorias_de_produtos&lt;/font&gt;" style="rounded=0;whiteSpace=wrap;html=1;dashed=1;" vertex="1" parent="WIyWlLk6GJQsqaUBKTNV-1">
          <mxGeometry x="440" y="710" width="300" height="80" as="geometry" />
        </mxCell>
        <mxCell id="ST55X5I8LHfSUQHFYakB-17" style="edgeStyle=orthogonalEdgeStyle;rounded=0;orthogonalLoop=1;jettySize=auto;html=1;exitX=1;exitY=0.5;exitDx=0;exitDy=0;entryX=0.5;entryY=1;entryDx=0;entryDy=0;dashed=1;" edge="1" parent="WIyWlLk6GJQsqaUBKTNV-1" source="ST55X5I8LHfSUQHFYakB-16" target="ST55X5I8LHfSUQHFYakB-10">
          <mxGeometry relative="1" as="geometry">
            <mxPoint x="940" y="770" as="targetPoint" />
          </mxGeometry>
        </mxCell>
        <mxCell id="ST55X5I8LHfSUQHFYakB-16" value="&lt;font style=&quot;font-size: 20px;&quot;&gt;stg_erp_subcategorias_de_produtos&lt;/font&gt;" style="rounded=0;whiteSpace=wrap;html=1;dashed=1;" vertex="1" parent="WIyWlLk6GJQsqaUBKTNV-1">
          <mxGeometry x="440" y="830" width="340" height="80" as="geometry" />
        </mxCell>
        <mxCell id="ST55X5I8LHfSUQHFYakB-26" style="edgeStyle=orthogonalEdgeStyle;rounded=0;orthogonalLoop=1;jettySize=auto;html=1;exitX=0.5;exitY=0;exitDx=0;exitDy=0;entryX=0.75;entryY=1;entryDx=0;entryDy=0;" edge="1" parent="WIyWlLk6GJQsqaUBKTNV-1" source="ST55X5I8LHfSUQHFYakB-19" target="ST55X5I8LHfSUQHFYakB-3">
          <mxGeometry relative="1" as="geometry" />
        </mxCell>
        <mxCell id="ST55X5I8LHfSUQHFYakB-19" value="&lt;font style=&quot;font-size: 28px;&quot;&gt;dim_enderecos&lt;/font&gt;" style="rounded=0;whiteSpace=wrap;html=1;" vertex="1" parent="WIyWlLk6GJQsqaUBKTNV-1">
          <mxGeometry x="1320" y="690" width="240" height="79" as="geometry" />
        </mxCell>
        <mxCell id="ST55X5I8LHfSUQHFYakB-23" style="edgeStyle=orthogonalEdgeStyle;rounded=0;orthogonalLoop=1;jettySize=auto;html=1;exitX=0;exitY=0.5;exitDx=0;exitDy=0;entryX=1;entryY=0.25;entryDx=0;entryDy=0;dashed=1;" edge="1" parent="WIyWlLk6GJQsqaUBKTNV-1" source="ST55X5I8LHfSUQHFYakB-20" target="ST55X5I8LHfSUQHFYakB-19">
          <mxGeometry relative="1" as="geometry" />
        </mxCell>
        <mxCell id="ST55X5I8LHfSUQHFYakB-20" value="&lt;font style=&quot;font-size: 20px;&quot;&gt;stg_erp_cidades&lt;/font&gt;" style="rounded=0;whiteSpace=wrap;html=1;dashed=1;" vertex="1" parent="WIyWlLk6GJQsqaUBKTNV-1">
          <mxGeometry x="1720" y="610" width="240" height="80" as="geometry" />
        </mxCell>
        <mxCell id="ST55X5I8LHfSUQHFYakB-24" style="edgeStyle=orthogonalEdgeStyle;rounded=0;orthogonalLoop=1;jettySize=auto;html=1;exitX=0;exitY=0.5;exitDx=0;exitDy=0;entryX=1;entryY=0.75;entryDx=0;entryDy=0;dashed=1;" edge="1" parent="WIyWlLk6GJQsqaUBKTNV-1" source="ST55X5I8LHfSUQHFYakB-21" target="ST55X5I8LHfSUQHFYakB-19">
          <mxGeometry relative="1" as="geometry" />
        </mxCell>
        <mxCell id="ST55X5I8LHfSUQHFYakB-21" value="&lt;font style=&quot;font-size: 20px;&quot;&gt;stg_erp_estados&lt;/font&gt;" style="rounded=0;whiteSpace=wrap;html=1;dashed=1;" vertex="1" parent="WIyWlLk6GJQsqaUBKTNV-1">
          <mxGeometry x="1720" y="730" width="240" height="80" as="geometry" />
        </mxCell>
        <mxCell id="ST55X5I8LHfSUQHFYakB-25" style="edgeStyle=orthogonalEdgeStyle;rounded=0;orthogonalLoop=1;jettySize=auto;html=1;exitX=0;exitY=0.5;exitDx=0;exitDy=0;entryX=0.75;entryY=1;entryDx=0;entryDy=0;dashed=1;" edge="1" parent="WIyWlLk6GJQsqaUBKTNV-1" source="ST55X5I8LHfSUQHFYakB-22" target="ST55X5I8LHfSUQHFYakB-19">
          <mxGeometry relative="1" as="geometry" />
        </mxCell>
        <mxCell id="ST55X5I8LHfSUQHFYakB-22" value="&lt;font style=&quot;font-size: 20px;&quot;&gt;stg_erp_paises&lt;/font&gt;" style="rounded=0;whiteSpace=wrap;html=1;dashed=1;" vertex="1" parent="WIyWlLk6GJQsqaUBKTNV-1">
          <mxGeometry x="1720" y="850" width="240" height="80" as="geometry" />
        </mxCell>
        <mxCell id="ST55X5I8LHfSUQHFYakB-28" style="edgeStyle=orthogonalEdgeStyle;rounded=0;orthogonalLoop=1;jettySize=auto;html=1;exitX=1;exitY=0.5;exitDx=0;exitDy=0;entryX=0.25;entryY=0;entryDx=0;entryDy=0;" edge="1" parent="WIyWlLk6GJQsqaUBKTNV-1" source="ST55X5I8LHfSUQHFYakB-27" target="ST55X5I8LHfSUQHFYakB-3">
          <mxGeometry relative="1" as="geometry" />
        </mxCell>
        <mxCell id="ST55X5I8LHfSUQHFYakB-27" value="&lt;font style=&quot;font-size: 28px;&quot;&gt;dim_calendario&lt;/font&gt;" style="rounded=0;whiteSpace=wrap;html=1;" vertex="1" parent="WIyWlLk6GJQsqaUBKTNV-1">
          <mxGeometry x="840" y="210" width="240" height="79" as="geometry" />
        </mxCell>
        <mxCell id="ST55X5I8LHfSUQHFYakB-36" style="edgeStyle=orthogonalEdgeStyle;rounded=0;orthogonalLoop=1;jettySize=auto;html=1;exitX=0;exitY=0.5;exitDx=0;exitDy=0;entryX=1;entryY=0.5;entryDx=0;entryDy=0;" edge="1" parent="WIyWlLk6GJQsqaUBKTNV-1" source="ST55X5I8LHfSUQHFYakB-29" target="ST55X5I8LHfSUQHFYakB-3">
          <mxGeometry relative="1" as="geometry" />
        </mxCell>
        <mxCell id="ST55X5I8LHfSUQHFYakB-29" value="&lt;font style=&quot;font-size: 28px;&quot;&gt;dim_clientes&lt;br&gt;&lt;/font&gt;" style="rounded=0;whiteSpace=wrap;html=1;" vertex="1" parent="WIyWlLk6GJQsqaUBKTNV-1">
          <mxGeometry x="1400" y="410" width="240" height="79" as="geometry" />
        </mxCell>
        <mxCell id="ST55X5I8LHfSUQHFYakB-35" style="edgeStyle=orthogonalEdgeStyle;rounded=0;orthogonalLoop=1;jettySize=auto;html=1;exitX=0;exitY=0.5;exitDx=0;exitDy=0;entryX=1;entryY=0.75;entryDx=0;entryDy=0;dashed=1;" edge="1" parent="WIyWlLk6GJQsqaUBKTNV-1" source="ST55X5I8LHfSUQHFYakB-30" target="ST55X5I8LHfSUQHFYakB-29">
          <mxGeometry relative="1" as="geometry" />
        </mxCell>
        <mxCell id="ST55X5I8LHfSUQHFYakB-30" value="&lt;font style=&quot;font-size: 20px;&quot;&gt;stg_erp_lojas&lt;/font&gt;" style="rounded=0;whiteSpace=wrap;html=1;dashed=1;" vertex="1" parent="WIyWlLk6GJQsqaUBKTNV-1">
          <mxGeometry x="1720" y="489" width="240" height="80" as="geometry" />
        </mxCell>
        <mxCell id="ST55X5I8LHfSUQHFYakB-31" value="&lt;font style=&quot;font-size: 20px;&quot;&gt;stg_erp_clientes&lt;/font&gt;" style="rounded=0;whiteSpace=wrap;html=1;dashed=1;" vertex="1" parent="WIyWlLk6GJQsqaUBKTNV-1">
          <mxGeometry x="1720" y="289" width="240" height="80" as="geometry" />
        </mxCell>
        <mxCell id="ST55X5I8LHfSUQHFYakB-34" style="edgeStyle=orthogonalEdgeStyle;rounded=0;orthogonalLoop=1;jettySize=auto;html=1;exitX=0;exitY=0.5;exitDx=0;exitDy=0;entryX=1;entryY=0.25;entryDx=0;entryDy=0;dashed=1;" edge="1" parent="WIyWlLk6GJQsqaUBKTNV-1" source="ST55X5I8LHfSUQHFYakB-32" target="ST55X5I8LHfSUQHFYakB-29">
          <mxGeometry relative="1" as="geometry" />
        </mxCell>
        <mxCell id="ST55X5I8LHfSUQHFYakB-32" value="&lt;font style=&quot;font-size: 20px;&quot;&gt;stg_erp_pessoas&lt;/font&gt;" style="rounded=0;whiteSpace=wrap;html=1;dashed=1;" vertex="1" parent="WIyWlLk6GJQsqaUBKTNV-1">
          <mxGeometry x="1720" y="389" width="240" height="80" as="geometry" />
        </mxCell>
        <mxCell id="ST55X5I8LHfSUQHFYakB-33" style="edgeStyle=orthogonalEdgeStyle;rounded=0;orthogonalLoop=1;jettySize=auto;html=1;exitX=0;exitY=0.5;exitDx=0;exitDy=0;dashed=1;" edge="1" parent="WIyWlLk6GJQsqaUBKTNV-1" source="ST55X5I8LHfSUQHFYakB-31">
          <mxGeometry relative="1" as="geometry">
            <mxPoint x="1520" y="405" as="targetPoint" />
          </mxGeometry>
        </mxCell>
        <mxCell id="ST55X5I8LHfSUQHFYakB-38" style="edgeStyle=orthogonalEdgeStyle;rounded=0;orthogonalLoop=1;jettySize=auto;html=1;dashed=1;" edge="1" parent="WIyWlLk6GJQsqaUBKTNV-1" source="ST55X5I8LHfSUQHFYakB-37" target="ST55X5I8LHfSUQHFYakB-27">
          <mxGeometry relative="1" as="geometry" />
        </mxCell>
        <mxCell id="ST55X5I8LHfSUQHFYakB-37" value="&lt;font style=&quot;font-size: 20px;&quot;&gt;stg_erp_calendario&lt;/font&gt;" style="rounded=0;whiteSpace=wrap;html=1;dashed=1;" vertex="1" parent="WIyWlLk6GJQsqaUBKTNV-1">
          <mxGeometry x="440" y="209" width="240" height="80" as="geometry" />
        </mxCell>
        <mxCell id="ST55X5I8LHfSUQHFYakB-45" style="edgeStyle=orthogonalEdgeStyle;rounded=0;orthogonalLoop=1;jettySize=auto;html=1;exitX=0;exitY=0.5;exitDx=0;exitDy=0;entryX=0.75;entryY=0;entryDx=0;entryDy=0;" edge="1" parent="WIyWlLk6GJQsqaUBKTNV-1" source="ST55X5I8LHfSUQHFYakB-39" target="ST55X5I8LHfSUQHFYakB-3">
          <mxGeometry relative="1" as="geometry" />
        </mxCell>
        <mxCell id="ST55X5I8LHfSUQHFYakB-39" value="&lt;font style=&quot;&quot;&gt;&lt;font style=&quot;font-size: 26px;&quot;&gt;dim_motivo_compra&lt;/font&gt;&lt;br&gt;&lt;/font&gt;" style="rounded=0;whiteSpace=wrap;html=1;" vertex="1" parent="WIyWlLk6GJQsqaUBKTNV-1">
          <mxGeometry x="1400" y="210" width="240" height="79" as="geometry" />
        </mxCell>
        <mxCell id="ST55X5I8LHfSUQHFYakB-42" style="edgeStyle=orthogonalEdgeStyle;rounded=0;orthogonalLoop=1;jettySize=auto;html=1;exitX=0;exitY=0.5;exitDx=0;exitDy=0;entryX=0.5;entryY=0;entryDx=0;entryDy=0;dashed=1;" edge="1" parent="WIyWlLk6GJQsqaUBKTNV-1" source="ST55X5I8LHfSUQHFYakB-40" target="ST55X5I8LHfSUQHFYakB-39">
          <mxGeometry relative="1" as="geometry" />
        </mxCell>
        <mxCell id="ST55X5I8LHfSUQHFYakB-40" value="&lt;font style=&quot;font-size: 20px;&quot;&gt;stg_erp_pedidos_e_motivos&lt;/font&gt;" style="rounded=0;whiteSpace=wrap;html=1;dashed=1;" vertex="1" parent="WIyWlLk6GJQsqaUBKTNV-1">
          <mxGeometry x="1720" y="70" width="260" height="80" as="geometry" />
        </mxCell>
        <mxCell id="ST55X5I8LHfSUQHFYakB-43" style="edgeStyle=orthogonalEdgeStyle;rounded=0;orthogonalLoop=1;jettySize=auto;html=1;exitX=0;exitY=0.5;exitDx=0;exitDy=0;entryX=1;entryY=0.5;entryDx=0;entryDy=0;dashed=1;" edge="1" parent="WIyWlLk6GJQsqaUBKTNV-1" source="ST55X5I8LHfSUQHFYakB-41" target="ST55X5I8LHfSUQHFYakB-39">
          <mxGeometry relative="1" as="geometry" />
        </mxCell>
        <mxCell id="ST55X5I8LHfSUQHFYakB-41" value="&lt;font style=&quot;font-size: 20px;&quot;&gt;stg_erp_motivos_compra&lt;/font&gt;" style="rounded=0;whiteSpace=wrap;html=1;dashed=1;" vertex="1" parent="WIyWlLk6GJQsqaUBKTNV-1">
          <mxGeometry x="1720" y="170" width="240" height="80" as="geometry" />
        </mxCell>
        <mxCell id="ST55X5I8LHfSUQHFYakB-49" style="edgeStyle=orthogonalEdgeStyle;rounded=0;orthogonalLoop=1;jettySize=auto;html=1;exitX=1;exitY=0.5;exitDx=0;exitDy=0;" edge="1" parent="WIyWlLk6GJQsqaUBKTNV-1" source="ST55X5I8LHfSUQHFYakB-46" target="ST55X5I8LHfSUQHFYakB-3">
          <mxGeometry relative="1" as="geometry" />
        </mxCell>
        <mxCell id="ST55X5I8LHfSUQHFYakB-46" value="&lt;font style=&quot;font-size: 28px;&quot;&gt;dim_tipo_cartao&lt;br&gt;&lt;/font&gt;" style="rounded=0;whiteSpace=wrap;html=1;" vertex="1" parent="WIyWlLk6GJQsqaUBKTNV-1">
          <mxGeometry x="840" y="91" width="240" height="79" as="geometry" />
        </mxCell>
        <mxCell id="ST55X5I8LHfSUQHFYakB-47" style="edgeStyle=orthogonalEdgeStyle;rounded=0;orthogonalLoop=1;jettySize=auto;html=1;dashed=1;" edge="1" parent="WIyWlLk6GJQsqaUBKTNV-1" source="ST55X5I8LHfSUQHFYakB-48" target="ST55X5I8LHfSUQHFYakB-46">
          <mxGeometry relative="1" as="geometry">
            <mxPoint x="840" y="130" as="targetPoint" />
          </mxGeometry>
        </mxCell>
        <mxCell id="ST55X5I8LHfSUQHFYakB-48" value="&lt;font style=&quot;font-size: 20px;&quot;&gt;stg_erp_cartao&lt;/font&gt;" style="rounded=0;whiteSpace=wrap;html=1;dashed=1;" vertex="1" parent="WIyWlLk6GJQsqaUBKTNV-1">
          <mxGeometry x="440" y="90" width="240" height="80" as="geometry" />
        </mxCell>
        <mxCell id="ST55X5I8LHfSUQHFYakB-51" style="edgeStyle=orthogonalEdgeStyle;rounded=0;orthogonalLoop=1;jettySize=auto;html=1;exitX=1;exitY=0.5;exitDx=0;exitDy=0;entryX=0;entryY=0.5;entryDx=0;entryDy=0;dashed=1;" edge="1" parent="WIyWlLk6GJQsqaUBKTNV-1" source="ST55X5I8LHfSUQHFYakB-50" target="ST55X5I8LHfSUQHFYakB-48">
          <mxGeometry relative="1" as="geometry" />
        </mxCell>
        <mxCell id="ST55X5I8LHfSUQHFYakB-50" value="&lt;font style=&quot;font-size: 20px;&quot;&gt;erp_creditcard&lt;/font&gt;" style="rounded=0;whiteSpace=wrap;html=1;dashed=1;" vertex="1" parent="WIyWlLk6GJQsqaUBKTNV-1">
          <mxGeometry x="120" y="90" width="240" height="80" as="geometry" />
        </mxCell>
        <mxCell id="ST55X5I8LHfSUQHFYakB-74" style="edgeStyle=orthogonalEdgeStyle;rounded=0;orthogonalLoop=1;jettySize=auto;html=1;exitX=1;exitY=0.5;exitDx=0;exitDy=0;entryX=0;entryY=0.5;entryDx=0;entryDy=0;dashed=1;" edge="1" parent="WIyWlLk6GJQsqaUBKTNV-1" source="ST55X5I8LHfSUQHFYakB-52" target="ST55X5I8LHfSUQHFYakB-5">
          <mxGeometry relative="1" as="geometry" />
        </mxCell>
        <mxCell id="ST55X5I8LHfSUQHFYakB-52" value="&lt;font style=&quot;font-size: 20px;&quot;&gt;erp_salesorderheader&lt;/font&gt;" style="rounded=0;whiteSpace=wrap;html=1;dashed=1;" vertex="1" parent="WIyWlLk6GJQsqaUBKTNV-1">
          <mxGeometry x="40" y="350" width="240" height="80" as="geometry" />
        </mxCell>
        <mxCell id="ST55X5I8LHfSUQHFYakB-75" style="edgeStyle=orthogonalEdgeStyle;rounded=0;orthogonalLoop=1;jettySize=auto;html=1;exitX=1;exitY=0.5;exitDx=0;exitDy=0;dashed=1;" edge="1" parent="WIyWlLk6GJQsqaUBKTNV-1" source="ST55X5I8LHfSUQHFYakB-53" target="ST55X5I8LHfSUQHFYakB-6">
          <mxGeometry relative="1" as="geometry" />
        </mxCell>
        <mxCell id="ST55X5I8LHfSUQHFYakB-53" value="&lt;font style=&quot;font-size: 20px;&quot;&gt;erp_salesorderdetail&lt;/font&gt;" style="rounded=0;whiteSpace=wrap;html=1;dashed=1;" vertex="1" parent="WIyWlLk6GJQsqaUBKTNV-1">
          <mxGeometry x="40" y="469" width="240" height="80" as="geometry" />
        </mxCell>
        <mxCell id="ST55X5I8LHfSUQHFYakB-76" style="edgeStyle=orthogonalEdgeStyle;rounded=0;orthogonalLoop=1;jettySize=auto;html=1;exitX=1;exitY=0.5;exitDx=0;exitDy=0;entryX=0;entryY=0.5;entryDx=0;entryDy=0;dashed=1;" edge="1" parent="WIyWlLk6GJQsqaUBKTNV-1" source="ST55X5I8LHfSUQHFYakB-54" target="ST55X5I8LHfSUQHFYakB-12">
          <mxGeometry relative="1" as="geometry" />
        </mxCell>
        <mxCell id="ST55X5I8LHfSUQHFYakB-54" value="&lt;font style=&quot;font-size: 20px;&quot;&gt;erp_product&lt;/font&gt;" style="rounded=0;whiteSpace=wrap;html=1;dashed=1;" vertex="1" parent="WIyWlLk6GJQsqaUBKTNV-1">
          <mxGeometry x="40" y="590" width="240" height="80" as="geometry" />
        </mxCell>
        <mxCell id="ST55X5I8LHfSUQHFYakB-77" style="edgeStyle=orthogonalEdgeStyle;rounded=0;orthogonalLoop=1;jettySize=auto;html=1;exitX=1;exitY=0.5;exitDx=0;exitDy=0;entryX=0;entryY=0.5;entryDx=0;entryDy=0;dashed=1;" edge="1" parent="WIyWlLk6GJQsqaUBKTNV-1" source="ST55X5I8LHfSUQHFYakB-55" target="ST55X5I8LHfSUQHFYakB-14">
          <mxGeometry relative="1" as="geometry" />
        </mxCell>
        <mxCell id="ST55X5I8LHfSUQHFYakB-55" value="&lt;font style=&quot;font-size: 20px;&quot;&gt;erp_productcategory&lt;/font&gt;" style="rounded=0;whiteSpace=wrap;html=1;dashed=1;" vertex="1" parent="WIyWlLk6GJQsqaUBKTNV-1">
          <mxGeometry x="40" y="710" width="300" height="80" as="geometry" />
        </mxCell>
        <mxCell id="ST55X5I8LHfSUQHFYakB-78" style="edgeStyle=orthogonalEdgeStyle;rounded=0;orthogonalLoop=1;jettySize=auto;html=1;exitX=1;exitY=0.5;exitDx=0;exitDy=0;entryX=0;entryY=0.5;entryDx=0;entryDy=0;dashed=1;" edge="1" parent="WIyWlLk6GJQsqaUBKTNV-1" source="ST55X5I8LHfSUQHFYakB-56" target="ST55X5I8LHfSUQHFYakB-16">
          <mxGeometry relative="1" as="geometry" />
        </mxCell>
        <mxCell id="ST55X5I8LHfSUQHFYakB-56" value="&lt;font style=&quot;font-size: 20px;&quot;&gt;erp_productsubcategory&lt;/font&gt;" style="rounded=0;whiteSpace=wrap;html=1;dashed=1;" vertex="1" parent="WIyWlLk6GJQsqaUBKTNV-1">
          <mxGeometry x="40" y="830" width="340" height="80" as="geometry" />
        </mxCell>
        <mxCell id="ST55X5I8LHfSUQHFYakB-71" style="edgeStyle=orthogonalEdgeStyle;rounded=0;orthogonalLoop=1;jettySize=auto;html=1;exitX=0;exitY=0.5;exitDx=0;exitDy=0;entryX=1;entryY=0.5;entryDx=0;entryDy=0;dashed=1;" edge="1" parent="WIyWlLk6GJQsqaUBKTNV-1" source="ST55X5I8LHfSUQHFYakB-58" target="ST55X5I8LHfSUQHFYakB-20">
          <mxGeometry relative="1" as="geometry" />
        </mxCell>
        <mxCell id="ST55X5I8LHfSUQHFYakB-58" value="&lt;font style=&quot;font-size: 20px;&quot;&gt;erp_address&lt;/font&gt;" style="rounded=0;whiteSpace=wrap;html=1;dashed=1;" vertex="1" parent="WIyWlLk6GJQsqaUBKTNV-1">
          <mxGeometry x="2060" y="610" width="240" height="80" as="geometry" />
        </mxCell>
        <mxCell id="ST55X5I8LHfSUQHFYakB-72" style="edgeStyle=orthogonalEdgeStyle;rounded=0;orthogonalLoop=1;jettySize=auto;html=1;exitX=0;exitY=0.5;exitDx=0;exitDy=0;entryX=1;entryY=0.5;entryDx=0;entryDy=0;dashed=1;" edge="1" parent="WIyWlLk6GJQsqaUBKTNV-1" source="ST55X5I8LHfSUQHFYakB-59" target="ST55X5I8LHfSUQHFYakB-21">
          <mxGeometry relative="1" as="geometry" />
        </mxCell>
        <mxCell id="ST55X5I8LHfSUQHFYakB-59" value="&lt;font style=&quot;font-size: 20px;&quot;&gt;erp_stateprovince&lt;/font&gt;" style="rounded=0;whiteSpace=wrap;html=1;dashed=1;" vertex="1" parent="WIyWlLk6GJQsqaUBKTNV-1">
          <mxGeometry x="2060" y="730" width="240" height="80" as="geometry" />
        </mxCell>
        <mxCell id="ST55X5I8LHfSUQHFYakB-73" style="edgeStyle=orthogonalEdgeStyle;rounded=0;orthogonalLoop=1;jettySize=auto;html=1;exitX=0;exitY=0.5;exitDx=0;exitDy=0;entryX=1;entryY=0.5;entryDx=0;entryDy=0;dashed=1;" edge="1" parent="WIyWlLk6GJQsqaUBKTNV-1" source="ST55X5I8LHfSUQHFYakB-60" target="ST55X5I8LHfSUQHFYakB-22">
          <mxGeometry relative="1" as="geometry" />
        </mxCell>
        <mxCell id="ST55X5I8LHfSUQHFYakB-60" value="&lt;font style=&quot;font-size: 20px;&quot;&gt;erp_countryregion&lt;/font&gt;" style="rounded=0;whiteSpace=wrap;html=1;dashed=1;" vertex="1" parent="WIyWlLk6GJQsqaUBKTNV-1">
          <mxGeometry x="2060" y="850" width="240" height="80" as="geometry" />
        </mxCell>
        <mxCell id="ST55X5I8LHfSUQHFYakB-70" style="edgeStyle=orthogonalEdgeStyle;rounded=0;orthogonalLoop=1;jettySize=auto;html=1;exitX=0;exitY=0.5;exitDx=0;exitDy=0;entryX=1;entryY=0.5;entryDx=0;entryDy=0;dashed=1;" edge="1" parent="WIyWlLk6GJQsqaUBKTNV-1" source="ST55X5I8LHfSUQHFYakB-61" target="ST55X5I8LHfSUQHFYakB-30">
          <mxGeometry relative="1" as="geometry" />
        </mxCell>
        <mxCell id="ST55X5I8LHfSUQHFYakB-61" value="&lt;font style=&quot;font-size: 20px;&quot;&gt;erp_store&lt;/font&gt;" style="rounded=0;whiteSpace=wrap;html=1;dashed=1;" vertex="1" parent="WIyWlLk6GJQsqaUBKTNV-1">
          <mxGeometry x="2060" y="489" width="240" height="80" as="geometry" />
        </mxCell>
        <mxCell id="ST55X5I8LHfSUQHFYakB-68" style="edgeStyle=orthogonalEdgeStyle;rounded=0;orthogonalLoop=1;jettySize=auto;html=1;exitX=0;exitY=0.5;exitDx=0;exitDy=0;dashed=1;" edge="1" parent="WIyWlLk6GJQsqaUBKTNV-1" source="ST55X5I8LHfSUQHFYakB-62" target="ST55X5I8LHfSUQHFYakB-31">
          <mxGeometry relative="1" as="geometry" />
        </mxCell>
        <mxCell id="ST55X5I8LHfSUQHFYakB-62" value="&lt;font style=&quot;font-size: 20px;&quot;&gt;erp_customer&lt;/font&gt;" style="rounded=0;whiteSpace=wrap;html=1;dashed=1;" vertex="1" parent="WIyWlLk6GJQsqaUBKTNV-1">
          <mxGeometry x="2060" y="289" width="240" height="80" as="geometry" />
        </mxCell>
        <mxCell id="ST55X5I8LHfSUQHFYakB-69" style="edgeStyle=orthogonalEdgeStyle;rounded=0;orthogonalLoop=1;jettySize=auto;html=1;exitX=0;exitY=0.5;exitDx=0;exitDy=0;entryX=1;entryY=0.5;entryDx=0;entryDy=0;dashed=1;" edge="1" parent="WIyWlLk6GJQsqaUBKTNV-1" source="ST55X5I8LHfSUQHFYakB-63" target="ST55X5I8LHfSUQHFYakB-32">
          <mxGeometry relative="1" as="geometry" />
        </mxCell>
        <mxCell id="ST55X5I8LHfSUQHFYakB-63" value="&lt;font style=&quot;font-size: 20px;&quot;&gt;erp_person&lt;/font&gt;" style="rounded=0;whiteSpace=wrap;html=1;dashed=1;" vertex="1" parent="WIyWlLk6GJQsqaUBKTNV-1">
          <mxGeometry x="2060" y="389" width="240" height="80" as="geometry" />
        </mxCell>
        <mxCell id="ST55X5I8LHfSUQHFYakB-66" style="edgeStyle=orthogonalEdgeStyle;rounded=0;orthogonalLoop=1;jettySize=auto;html=1;exitX=0;exitY=0.5;exitDx=0;exitDy=0;entryX=1;entryY=0.5;entryDx=0;entryDy=0;dashed=1;" edge="1" parent="WIyWlLk6GJQsqaUBKTNV-1" source="ST55X5I8LHfSUQHFYakB-64" target="ST55X5I8LHfSUQHFYakB-40">
          <mxGeometry relative="1" as="geometry" />
        </mxCell>
        <mxCell id="ST55X5I8LHfSUQHFYakB-64" value="&lt;font style=&quot;font-size: 20px;&quot;&gt;erp_salesorderheadersalesreason&lt;/font&gt;" style="rounded=0;whiteSpace=wrap;html=1;dashed=1;" vertex="1" parent="WIyWlLk6GJQsqaUBKTNV-1">
          <mxGeometry x="2060" y="75" width="320" height="70" as="geometry" />
        </mxCell>
        <mxCell id="ST55X5I8LHfSUQHFYakB-67" style="edgeStyle=orthogonalEdgeStyle;rounded=0;orthogonalLoop=1;jettySize=auto;html=1;exitX=0;exitY=0.5;exitDx=0;exitDy=0;dashed=1;" edge="1" parent="WIyWlLk6GJQsqaUBKTNV-1" source="ST55X5I8LHfSUQHFYakB-65" target="ST55X5I8LHfSUQHFYakB-41">
          <mxGeometry relative="1" as="geometry" />
        </mxCell>
        <mxCell id="ST55X5I8LHfSUQHFYakB-65" value="&lt;font style=&quot;font-size: 20px;&quot;&gt;stg_erp_salesreason&lt;/font&gt;" style="rounded=0;whiteSpace=wrap;html=1;dashed=1;" vertex="1" parent="WIyWlLk6GJQsqaUBKTNV-1">
          <mxGeometry x="2060" y="170" width="240" height="80" as="geometry" />
        </mxCell>
      </root>
    </mxGraphModel>
  </diagram>
</mxfile>
